<svg aria-hidden="true" style="position: absolute; width: 0; height: 0; overflow: hidden;" version="1.1" xmlns="http://www.w3.org/2000/svg" xmlns:xlink="http://www.w3.org/1999/xlink">
<defs>
<symbol id="brand-logo" viewBox="0 0 133 32">
<path d="M5514 12134 c-242 -40 -485 -163 -657 -332 -83 -82 -97 -121 -69
-185 29 -65 111 -97 168 -64 12 7 50 38 84 70 121 110 249 182 417 234 83 26
99 27 278 27 177 0 196 -2 277 -27 168 -51 299 -128 437 -253 62 -57 67 -59
119 -59 49 0 56 3 88 37 30 33 34 44 34 90 l0 52 -82 81 c-173 169 -406 286
-657 329 -114 19 -322 20 -437 0z"/>
<path d="M10045 12134 c-255 -46 -517 -182 -677 -352 -55 -57 -58 -63 -58
-111 0 -42 5 -56 31 -85 58 -67 127 -61 210 18 123 116 274 204 434 252 121
36 348 45 476 19 181 -36 336 -112 474 -233 43 -37 89 -75 104 -84 58 -39 142
-10 173 59 28 64 14 103 -69 185 -175 172 -417 293 -665 332 -120 20 -325 19
-433 0z"/>
<path d="M10896 10004 c-93 -29 -193 -155 -239 -299 -35 -110 -40 -176 -38
-510 2 -318 -6 -432 -34 -510 -4 -11 7 -2 25 20 59 71 142 145 290 258 254
194 363 324 405 482 42 164 -6 354 -119 469 -88 90 -190 122 -290 90z"/>
<path d="M3679 9455 c-31 -17 -42 -42 -64 -150 -71 -334 -274 -598 -570 -741
-283 -137 -601 -135 -915 7 -102 45 -126 46 -172 1 -33 -30 -38 -93 -12 -130
37 -54 217 -154 360 -201 217 -71 497 -72 707 -2 l56 18 43 -61 c600 -865
1467 -1586 2428 -2019 618 -278 1216 -435 1930 -507 172 -18 695 -24 890 -11
1289 86 2467 555 3445 1371 412 344 709 669 1100 1204 l20 27 45 -16 c256 -92
599 -73 854 48 105 50 207 116 230 149 25 35 20 91 -9 126 -41 49 -71 49 -175
3 -249 -113 -484 -137 -726 -76 -390 99 -686 421 -764 830 -16 86 -29 114 -61
130 -48 25 -87 19 -126 -20 l-36 -36 6 -117 c10 -200 81 -412 197 -583 55 -80
177 -208 256 -268 l62 -47 -42 -57 c-88 -116 -298 -357 -442 -506 -387 -400
-851 -760 -1329 -1033 -118 -67 -315 -170 -315 -165 0 2 13 33 29 68 41 91 98
273 132 419 76 334 85 573 29 798 -26 102 -99 247 -161 323 -139 166 -381 272
-654 286 -372 18 -626 -126 -780 -442 -91 -186 -129 -371 -145 -709 -14 -299
-50 -460 -146 -650 -69 -137 -138 -230 -264 -357 -156 -157 -342 -290 -445
-318 -50 -14 -244 -14 -468 -1 -1344 80 -2575 602 -3599 1526 -220 199 -501
502 -681 736 l-67 86 63 50 c231 185 383 439 432 726 8 49 15 122 15 163 0 72
-1 76 -34 109 -38 38 -81 44 -127 19z"/>
<path d="M11253 8626 c-71 -23 -134 -66 -214 -146 -71 -71 -137 -156 -128
-164 2 -2 33 3 68 12 56 13 81 14 187 4 166 -17 240 0 297 68 102 120 -46 279
-210 226z"/>
<path d="M8217 8519 c-41 -31 -52 -90 -33 -167 38 -156 154 -273 306 -310 25
-6 83 -13 130 -17 47 -3 110 -8 140 -11 l55 -6 -45 33 c-103 74 -203 196 -269
327 -35 70 -91 136 -132 158 -42 21 -121 18 -152 -7z"/>
<path d="M0 450 l0 -450 8000 0 8000 0 0 450 0 450 -8000 0 -8000 0 0 -450z
m635 263 c59 -20 122 -80 156 -148 33 -69 35 -209 2 -270 -24 -45 -70 -92 -80
-82 -4 4 5 43 20 87 33 97 34 140 3 205 -41 88 -118 137 -217 137 -89 0 -153
-44 -192 -130 -25 -58 -18 -126 19 -189 43 -74 138 -103 214 -65 98 49 108
192 16 236 -49 23 -64 20 -102 -18 -38 -38 -41 -54 -19 -95 27 -53 61 -48 67
9 2 24 9 36 21 38 48 9 62 -54 24 -102 -20 -25 -31 -29 -70 -29 -56 0 -94 23
-113 68 -42 102 20 210 129 222 62 7 111 -12 151 -59 93 -109 58 -272 -73
-340 -95 -50 -219 -33 -294 40 -101 99 -103 304 -4 409 80 84 225 116 342 76z
m613 -208 c3 -164 -8 -198 -71 -229 -33 -16 -45 -17 -76 -7 -20 6 -48 22 -62
37 -21 22 -24 35 -24 96 0 68 1 70 37 104 44 40 93 47 103 14 8 -25 -10 -50
-36 -50 -10 0 -26 -11 -35 -25 -48 -73 28 -155 86 -93 18 20 20 35 20 153 0
73 3 135 7 139 4 4 16 6 28 4 19 -3 20 -11 23 -143z m1887 110 c0 -27 -3 -30
-30 -30 -21 0 -31 5 -33 18 -6 33 6 49 35 45 24 -3 28 -8 28 -33z m-285 -45
l0 -29 73 -3 72 -3 0 -30 0 -30 -72 -3 -73 -3 0 -44 c0 -24 5 -56 12 -70 19
-43 78 -28 78 20 0 28 17 44 41 38 43 -12 13 -110 -43 -139 -26 -13 -38 -14
-70 -5 -53 16 -66 47 -68 162 -2 174 -3 169 25 169 21 0 25 -5 25 -30z m-1416
-36 c27 -10 20 -53 -9 -60 -36 -9 -45 -32 -45 -117 0 -78 -13 -106 -45 -93
-12 4 -15 25 -15 100 0 109 10 139 54 160 35 18 39 18 60 10z m254 -14 c21
-13 32 -27 32 -43 0 -31 -72 -110 -96 -105 -27 5 -29 41 -4 63 25 23 26 35 0
35 -26 0 -62 -57 -54 -85 13 -43 34 -55 98 -55 72 0 89 -9 84 -41 -3 -23 -6
-24 -85 -24 -79 0 -84 1 -114 32 -25 25 -33 42 -37 83 -11 121 83 196 176 140z
m316 -19 c30 -30 31 -35 34 -131 3 -88 2 -101 -14 -107 -28 -11 -44 24 -44 99
0 55 -4 72 -20 88 -57 57 -132 -29 -85 -96 8 -12 28 -24 45 -28 27 -5 31 -10
28 -33 -2 -21 -9 -29 -28 -31 -36 -4 -89 33 -106 73 -59 141 87 269 190 166z
m265 23 c19 -14 25 -14 32 -3 5 9 26 14 53 14 36 0 51 -6 73 -28 27 -27 28
-31 28 -135 l0 -107 -25 0 c-25 0 -25 2 -30 94 -4 75 -9 96 -22 105 -13 8 -23
8 -35 0 -15 -9 -19 -28 -21 -103 -2 -70 -6 -93 -18 -98 -30 -11 -42 15 -43 99
-2 84 -11 108 -40 108 -32 0 -41 -22 -41 -106 0 -85 -12 -113 -45 -100 -12 4
-15 25 -15 100 0 105 9 134 48 159 34 21 71 21 101 1z m470 -6 c11 -30 -4 -48
-39 -48 -32 0 -40 -14 -40 -75 0 -66 -26 -113 -69 -125 -47 -13 -56 -13 -69 3
-19 23 -3 57 27 57 41 0 51 18 51 86 0 54 3 66 29 93 37 40 97 44 110 9z m389
-114 c2 -118 1 -132 -15 -138 -32 -13 -43 21 -43 125 0 110 11 152 38 147 15
-3 17 -19 20 -134z m230 120 c20 -14 24 -14 44 0 34 24 74 20 110 -13 l33 -29
0 -109 0 -108 -25 0 c-24 0 -25 2 -30 92 -5 100 -15 119 -54 109 -26 -6 -26
-8 -26 -102 0 -77 -3 -96 -16 -101 -28 -10 -39 16 -44 104 -4 67 -9 88 -22 97
-13 8 -23 8 -35 0 -15 -9 -19 -28 -21 -97 -3 -89 -15 -116 -48 -103 -13 5 -15
22 -12 112 3 105 3 106 36 135 36 33 76 37 110 13z m450 -4 c19 -12 32 -28 32
-40 0 -32 -71 -111 -95 -108 -27 4 -30 39 -5 65 25 27 25 33 2 33 -27 0 -55
-36 -55 -70 0 -42 28 -70 72 -70 47 0 64 -12 59 -41 -7 -51 -132 -33 -167 25
-42 67 -19 179 42 210 43 21 76 20 115 -4z m373 -19 c16 -16 29 -39 29 -50 0
-17 -6 -21 -35 -21 -22 0 -38 6 -41 15 -9 24 -43 29 -65 9 -23 -21 -25 -80 -3
-112 19 -27 39 -28 61 -2 11 12 30 20 50 20 27 0 33 -4 33 -21 0 -11 -13 -34
-29 -50 -24 -24 -38 -29 -76 -29 -63 0 -99 21 -119 70 -19 47 -20 71 -5 123
13 50 57 77 122 77 40 0 54 -5 78 -29z m256 12 c32 -21 53 -70 53 -123 0 -89
-54 -135 -147 -128 -65 6 -87 25 -104 90 -16 57 0 118 38 154 32 30 119 34
160 7z m290 2 c18 -13 22 -13 33 0 8 10 30 15 60 15 40 0 52 -4 69 -26 18 -23
21 -41 21 -135 l0 -109 -40 0 -39 0 -3 96 c-2 78 -6 99 -20 108 -13 8 -22 6
-37 -8 -11 -10 -20 -21 -19 -25 0 -3 0 -43 -1 -88 l-1 -83 -35 0 -35 0 0 88
c0 106 -13 133 -54 114 -25 -11 -26 -14 -26 -107 l0 -95 -40 0 -40 0 0 130 0
131 50 -2 c27 -2 53 0 57 4 12 13 78 7 100 -8z m7773 -81 c0 -68 -3 -84 -15
-84 -8 0 -18 -1 -22 -2 -8 -3 -16 149 -9 168 3 7 13 10 25 7 19 -5 21 -13 21
-89z m330 0 c0 -77 -2 -84 -20 -84 -18 0 -20 7 -20 66 0 57 -3 67 -20 71 -32
8 -24 31 13 35 17 2 35 2 40 0 4 -2 7 -41 7 -88z m1140 76 c0 -15 -7 -20 -29
-20 -17 0 -33 -4 -36 -10 -3 -6 4 -10 16 -10 48 0 74 -54 49 -101 -20 -36
-110 -21 -110 18 0 16 32 17 47 2 23 -23 43 10 24 40 -8 12 -12 12 -25 2 -28
-23 -42 -7 -38 42 l4 46 46 4 c26 2 48 4 50 5 1 1 2 -7 2 -18z m590 4 c0 -12
-7 -15 -25 -12 -21 4 -26 1 -31 -21 -3 -14 -12 -47 -19 -73 -7 -25 -11 -49 -8
-52 4 -3 -5 -6 -19 -6 -23 0 -27 6 -39 53 l-12 52 -15 -52 c-11 -39 -19 -53
-33 -53 -18 0 -21 5 -37 75 -24 97 -24 95 -3 95 19 0 22 -5 36 -65 7 -30 7
-30 21 18 11 34 20 47 33 47 15 0 20 -10 26 -45 7 -53 20 -51 29 4 5 34 10 40
34 44 54 8 62 7 62 -9z m1061 -31 c0 -47 1 -47 16 -25 9 12 26 22 40 22 l24 0
-23 -30 -22 -30 22 -30 c28 -37 28 -37 -7 -42 -18 -3 -27 0 -25 7 3 6 -2 19
-10 30 -15 19 -15 19 -16 -7 0 -21 -5 -28 -20 -28 -18 0 -20 7 -20 55 0 53 -1
55 -20 45 -15 -8 -20 -21 -20 -55 0 -38 -3 -45 -20 -45 -18 0 -20 7 -20 65 l0
65 40 0 c36 0 40 3 40 25 0 18 5 25 20 25 17 0 20 -7 21 -47z m-2977 15 c9
-12 16 -42 16 -65 0 -60 -25 -83 -90 -83 l-50 0 0 85 0 85 54 0 c45 0 58 -4
70 -22z m342 -3 c19 -29 15 -104 -6 -130 -17 -20 -80 -20 -80 0 0 9 9 15 25
15 14 0 25 2 25 4 0 2 3 11 6 19 4 11 -1 13 -20 10 -34 -7 -56 12 -56 48 0 59
74 83 106 34z m148 3 c8 -13 8 -23 -1 -38 -8 -12 -9 -21 -3 -25 14 -9 12 -59
-2 -73 -7 -7 -28 -12 -48 -12 -37 0 -60 14 -60 37 0 16 37 17 42 1 6 -16 38
-2 38 16 0 9 -11 18 -24 22 -29 7 -24 34 5 34 10 0 19 5 19 10 0 16 -33 26
-38 12 -5 -16 -42 -15 -42 1 0 39 91 50 114 15z m130 6 c18 -18 22 -104 6
-135 -8 -14 -21 -19 -50 -19 -47 0 -60 18 -60 85 0 65 13 85 55 85 18 0 41 -7
49 -16z m140 -6 c21 -30 21 -106 -1 -130 -9 -10 -30 -18 -50 -18 -26 0 -33 4
-33 20 0 13 5 18 15 14 15 -6 45 11 45 26 0 4 -11 5 -25 2 -47 -8 -71 40 -45
89 15 28 74 26 94 -3z m146 2 c7 -14 8 -26 0 -39 -7 -13 -7 -22 0 -26 14 -9
13 -58 -2 -73 -16 -16 -80 -16 -96 0 -15 15 -16 64 -2 73 8 5 7 11 -1 21 -9
11 -9 21 -1 39 10 21 19 25 51 25 30 0 43 -5 51 -20z m142 -5 c8 -18 8 -29 1
-36 -7 -7 -7 -19 0 -40 16 -41 0 -63 -47 -67 -39 -3 -66 11 -66 34 0 17 37 19
42 2 6 -16 38 -2 38 16 0 9 -11 18 -24 22 -29 7 -24 34 5 34 10 0 19 5 19 10
0 16 -33 26 -38 12 -5 -16 -42 -15 -42 1 0 23 23 37 62 37 31 0 41 -5 50 -25z
m142 3 c8 -13 8 -23 -1 -38 -8 -12 -9 -21 -3 -25 14 -9 12 -59 -2 -73 -7 -7
-28 -12 -48 -12 -37 0 -60 14 -60 37 0 16 37 17 42 1 6 -17 38 -2 38 18 0 9
-9 18 -20 21 -11 3 -20 11 -20 18 0 7 9 15 20 18 11 3 20 10 20 16 0 6 -9 11
-20 11 -11 0 -20 -4 -20 -10 0 -5 -9 -10 -20 -10 -22 0 -26 20 -8 38 18 18 89
11 102 -10z m371 -3 c50 -49 20 -137 -52 -151 -44 -9 -93 38 -93 89 0 80 90
118 145 62z m945 0 c0 -10 10 -15 29 -15 30 0 40 -13 42 -53 1 -14 5 -8 11 16
12 46 33 48 52 5 l14 -33 1 33 c1 26 5 32 22 32 19 0 21 -4 15 -32 -4 -18 -10
-48 -13 -65 -7 -42 -39 -45 -54 -5 l-11 27 -10 -27 c-6 -17 -17 -28 -28 -28
-19 0 -25 10 -35 72 -5 26 -11 35 -21 31 -16 -6 -20 -73 -4 -73 6 0 10 -7 10
-16 0 -11 -8 -14 -27 -12 -26 3 -28 7 -31 51 -2 26 -7 47 -13 47 -5 0 -9 7 -9
15 0 8 5 15 10 15 6 0 10 7 10 15 0 8 9 15 20 15 11 0 20 -7 20 -15z m-590
-80 c0 -58 -2 -65 -20 -65 -18 0 -20 7 -20 65 0 58 2 65 20 65 18 0 20 -7 20
-65z m114 49 c24 -23 20 -27 -19 -20 -44 9 -46 -8 -3 -20 56 -16 45 -74 -12
-74 -41 0 -60 10 -60 31 0 20 26 27 32 8 2 -6 13 -9 23 -7 16 4 13 8 -17 21
-39 17 -49 42 -26 65 17 17 64 15 82 -4z m126 -3 c5 -11 10 -29 10 -40 0 -17
-6 -21 -36 -21 -22 0 -33 -4 -29 -11 4 -5 19 -9 33 -7 19 2 27 -2 27 -12 0
-21 -77 -26 -94 -6 -16 19 -17 66 -2 94 16 29 75 31 91 3z m128 7 c7 -7 12
-36 12 -65 l0 -53 -50 0 c-45 0 -52 3 -62 26 -11 22 -10 28 7 40 10 8 29 14
42 14 13 0 23 5 23 10 0 7 -13 8 -35 4 -19 -3 -35 -2 -35 3 0 18 25 33 55 33
17 0 36 -5 43 -12z m142 -14 c6 -14 10 -43 10 -65 0 -32 -3 -39 -19 -39 -17 0
-20 8 -23 47 -2 36 -7 49 -20 51 -15 3 -18 -4 -18 -47 0 -44 -3 -51 -20 -51
-18 0 -20 7 -20 64 l0 64 50 0 c45 1 52 -2 60 -24z m394 10 c39 -38 7 -114
-48 -114 -41 0 -58 19 -58 65 0 20 6 42 12 50 16 20 74 19 94 -1z m-11529
-169 c0 -27 -3 -30 -30 -30 -21 0 -31 5 -33 18 -6 33 6 49 35 45 24 -3 28 -8
28 -33z"/>
<path d="M4326 448 c-22 -31 -20 -84 4 -108 25 -25 35 -25 60 0 26 26 27 90 2
113 -25 23 -48 21 -66 -5z"/>
<path d="M12560 435 c0 -46 3 -55 18 -55 25 0 42 19 42 48 0 34 -18 62 -40 62
-18 0 -20 -7 -20 -55z"/>
<path d="M12927 483 c-13 -12 -7 -43 7 -43 19 0 28 14 20 34 -7 17 -16 20 -27
9z"/>
<path d="M13202 438 c2 -39 7 -53 18 -53 11 0 15 12 15 50 0 40 -4 50 -18 53
-16 3 -18 -3 -15 -50z"/>
<path d="M13347 484 c-15 -15 -7 -45 11 -42 9 2 17 12 17 22 0 20 -16 31 -28
20z"/>
<path d="M13485 481 c-3 -5 -1 -12 5 -16 12 -7 30 2 30 16 0 12 -27 12 -35 0z"/>
<path d="M13491 420 c-17 -10 -7 -40 14 -40 8 0 15 9 15 19 0 24 -12 32 -29
21z"/>
<path d="M14096 478 c-38 -54 5 -129 61 -107 53 20 68 69 33 107 -27 29 -74
29 -94 0z m80 -5 c12 -12 13 -18 4 -21 -6 -2 -17 1 -23 7 -7 7 -14 7 -24 0
-15 -13 -16 -28 -4 -48 8 -12 12 -13 25 -1 23 18 34 3 13 -17 -13 -14 -21 -14
-42 -5 -19 9 -25 19 -25 45 0 54 40 76 76 40z"/>
<path d="M14745 440 c-3 -5 1 -10 9 -10 9 0 16 5 16 10 0 6 -4 10 -9 10 -6 0
-13 -4 -16 -10z"/>
<path d="M14865 401 c-3 -5 -1 -12 5 -16 12 -7 30 2 30 16 0 12 -27 12 -35 0z"/>
<path d="M15398 433 c-7 -30 3 -54 20 -51 23 4 23 61 1 66 -9 2 -18 -5 -21
-15z"/>
</symbol>
<symbol id="dishes-bg" viewBox="0 0 50 32">
<path fill="#ffd800" style="fill: var(--color1, #ffd800)" d="M-1.481-6.938h71.211v40.068h-71.211v-40.068z"></path>
<path fill="#ffe200" style="fill: var(--color2, #ffe200)" d="M54.956 33.13c4.944-5.155 7.988-12.165 7.988-19.886 0-0.012 0-0.024-0-0.036v0.002c0-7.841-3.13-14.951-8.208-20.148h8.761c3.804 5.48 6.118 12.245 6.232 19.545l0 0.028v1.149c-0.113 7.232-2.368 13.915-6.157 19.469l0.079-0.123zM21.81 33.13c-1.512-0.945-2.825-1.98-4.015-3.141l0.005 0.005q-0.115-0.112-0.228-0.225c-2.083-2.079-3.774-4.549-4.956-7.29l-0.058-0.152c-0.631-1.443-1.147-3.129-1.466-4.884l-0.021-0.142c-0.226-1.226-0.356-2.636-0.356-4.076 0-0.005 0-0.011 0-0.016v0.001c0-0.006 0-0.014 0-0.021 0-6.41 2.58-12.217 6.758-16.439l-0.002 0.002q0.050-0.051 0.1-0.101c1.349-1.352 2.862-2.539 4.507-3.529l0.105-0.059h23.883c5.737 3.447 9.828 9.136 11.076 15.825l0.022 0.145c0.001 0.007 0.002 0.013 0.004 0.020 0 0.001 0 0.001 0 0.002 0.234 1.245 0.367 2.677 0.367 4.141 0 0.005 0 0.011 0 0.016v-0.001c-0.004 8.372-4.394 15.717-10.997 19.863l-0.098 0.057zM18.031 13.21c0 0.001 0 0.001 0 0.002 0 8.89 7.206 16.096 16.095 16.098h0c8.889 0 16.095-7.208 16.095-16.1 0-8.509-6.6-15.477-14.959-16.060q-0.403-0.028-0.812-0.036h-0.004l-0.016-0h-0.005l-0.027-0.001h-0.007l-0.013-0h-0.009l-0.019-0-0.013-0h-0.033l-0.020-0h-0.032c-0.007 0-0.014 0-0.021 0h-0.106c-8.889-0.002-16.095 7.207-16.095 16.098zM4.601 33.13c-3.815-5.587-6.091-12.488-6.091-19.92 0-7.529 2.336-14.513 6.323-20.266l-0.077 0.118h8.761c-5.075 5.179-8.208 12.28-8.208 20.112 0 0.013 0 0.025 0 0.038v-0.002c0 7.727 3.040 14.745 7.988 19.921zM34.126 24.668q-0.23 0-0.458-0.009c-1.457-0.057-2.825-0.38-4.075-0.922l0.073 0.028q-0.296-0.125-0.583-0.266-0.058-0.029-0.116-0.058c-0.018-0.009-0.035-0.018-0.053-0.027l-0.032-0.016c-1.097-0.572-2.039-1.267-2.856-2.087l-0-0c-1.684-1.683-2.846-3.889-3.224-6.352l-0.008-0.064c-0.078-0.505-0.123-1.087-0.123-1.68 0-0.002 0-0.004 0-0.007v0c0-0.002 0-0.005 0-0.007 0-6.324 5.127-11.451 11.451-11.451 0.001 0 0.002 0 0.004 0h-0q0.243 0 0.484 0.010h0.003l0.044 0.002c2.6 0.123 4.952 1.096 6.805 2.645l-0.017-0.014 0.016 0.014q0.396 0.331 0.764 0.699c0.339 0.34 0.658 0.7 0.953 1.080l0.019 0.026c0.571 0.733 1.067 1.568 1.451 2.462l0.028 0.074q0.137 0.323 0.253 0.652c0.411 1.129 0.649 2.432 0.649 3.79 0 0.006 0 0.013-0 0.019v-0.001c-0 4.692-2.82 8.726-6.857 10.499l-0.074 0.029q-0.032 0.014-0.064 0.027c-1.31 0.571-2.836 0.903-4.439 0.903-0.007 0-0.014 0-0.021-0h0.001zM26.81 13.21c0 0.002 0 0.005 0 0.007 0 4.038 3.273 7.311 7.311 7.311 0.002 0 0.004 0 0.005 0h-0c4.041 0 7.316-3.276 7.316-7.318 0-0.003 0-0.007 0-0.010 0-2.013-0.815-3.836-2.134-5.156l-0.009-0.009-0.017-0.017c-1.319-1.314-3.138-2.126-5.146-2.126-0.003 0-0.007 0-0.010 0h0.001c-4.041 0-7.316 3.276-7.316 7.318zM34.126 17.127c-2.163-0.002-3.915-1.755-3.916-3.918v-0c0-2.163 1.753-3.916 3.916-3.916s3.916 1.753 3.916 3.916v0c-0.002 2.162-1.754 3.915-3.916 3.918h-0zM32.663 13.21c0 0.808 0.655 1.463 1.463 1.463s1.463-0.655 1.463-1.463-0.655-1.463-1.463-1.463c0 0-0 0-0 0v0c-0.808 0-1.463 0.655-1.463 1.463 0 0 0 0 0 0v0z"></path>
</symbol>
<symbol id="red-bg" viewBox="0 0 114 32">
<path fill="#e31b0e" style="fill: var(--color3, #e31b0e)" d="M0.044 0.044h113.463v31.911h-113.463v-31.911z"></path>
<path fill="#d3180c" style="fill: var(--color4, #d3180c)" d="M89.968 31.956c7.877-8.21 12.728-19.376 12.728-31.676 0-0.019 0-0.038-0-0.058v0.003c0-0.060 0-0.121 0-0.181h10.812v1.096c-0.18 11.52-3.774 22.165-9.81 31.010l0.126-0.195zM37.155 31.956c-2.41-1.505-4.502-3.154-6.397-5.003l0.008 0.007q-0.183-0.178-0.363-0.358c-3.318-3.311-6.014-7.245-7.896-11.612l-0.093-0.241c-1.005-2.299-1.827-4.985-2.336-7.78l-0.034-0.226c-0.36-1.952-0.567-4.199-0.567-6.493 0-0.008 0-0.017 0-0.025v0.001c0-0.060 0-0.121 0-0.181h11.658c0 0.060-0.001 0.12-0.001 0.181 0 14.163 11.482 25.645 25.645 25.645h0c14.163 0 25.645-11.482 25.645-25.645 0-0.060 0-0.12-0.001-0.181h11.657q0 0.090 0 0.181v0c-0.007 13.336-7.002 25.036-17.521 31.639l-0.156 0.091zM9.736 31.956c-6.069-8.883-9.691-19.856-9.691-31.676 0-0.019 0-0.039 0-0.058v0.003q0-0.090 0-0.181h10.819c0 0.060 0 0.121 0 0.181-0 0.018-0 0.039-0 0.061 0 12.298 4.851 23.462 12.743 31.686l-0.015-0.016zM56.779 18.476q-0.366 0-0.729-0.014c-2.322-0.091-4.501-0.606-6.493-1.469l0.117 0.045q-0.471-0.199-0.929-0.423-0.093-0.045-0.185-0.092c-0.028-0.014-0.057-0.029-0.085-0.043l-0.051-0.026c-1.748-0.911-3.248-2.019-4.551-3.324l-0-0c-2.683-2.681-4.535-6.194-5.137-10.118l-0.013-0.102c-0.125-0.804-0.196-1.732-0.196-2.676 0-0.003 0-0.007 0-0.010v0.001c0-0.060 0-0.121 0.001-0.181h6.594c-0.001 0.060-0.001 0.12-0.001 0.181 0 6.438 5.219 11.657 11.657 11.657s11.657-5.219 11.657-11.657v0q0-0.091-0.001-0.181h6.594q0.001 0.090 0.001 0.181v0c-0.001 7.475-4.494 13.9-10.926 16.724l-0.117 0.046q-0.051 0.022-0.102 0.043c-2.087 0.909-4.518 1.438-7.073 1.438-0.011 0-0.023 0-0.034-0h0.002zM56.779 6.465c-3.446-0.002-6.238-2.795-6.24-6.24v-0q0-0.091 0.003-0.181h3.913q-0.007 0.089-0.007 0.181c0 1.288 1.044 2.331 2.331 2.331s2.331-1.044 2.331-2.331v0q0-0.091-0.007-0.181h3.913q0.003 0.090 0.003 0.181v0c-0.004 3.445-2.795 6.237-6.24 6.24h-0z"></path>
</symbol>
<symbol id="yellow-bg" viewBox="0 0 57 32">
<path fill="#ffd800" style="fill: var(--color1, #ffd800)" d="M0.022 0.022h56.81v31.956h-56.81v-31.956z"></path>
<path fill="#ffe200" style="fill: var(--color2, #ffe200)" d="M45.046 31.978c3.944-4.12 6.373-9.72 6.373-15.887 0-6.256-2.498-11.928-6.552-16.073l0.004 0.004h6.989c3.034 4.37 4.881 9.766 4.972 15.587l0 0.023v0.917c-0.090 5.768-1.889 11.098-4.912 15.527l0.063-0.098zM18.603 31.978c-1.206-0.754-2.254-1.579-3.203-2.505l0.004 0.004q-0.091-0.089-0.182-0.179c-1.661-1.658-3.011-3.628-3.954-5.814l-0.046-0.121c-0.503-1.151-0.915-2.496-1.169-3.895l-0.017-0.113c-0.18-0.977-0.284-2.102-0.284-3.251 0-0.004 0-0.008 0-0.012v0.001c0-0.005 0-0.010 0-0.016 0-5.113 2.058-9.744 5.392-13.112l-0.002 0.002q0.040-0.040 0.080-0.080c1.076-1.078 2.284-2.025 3.596-2.815l0.084-0.047h19.054c4.577 2.748 7.84 7.286 8.836 12.621l0.018 0.116c0.001 0.005 0.002 0.011 0.003 0.016 0 0.001 0 0.001 0 0.001 0.186 0.993 0.293 2.135 0.293 3.303 0 0.004 0 0.009 0 0.013v-0.001c-0.004 6.677-3.506 12.536-8.773 15.842l-0.078 0.046zM15.589 16.091c0 7.091 5.749 12.84 12.84 12.84v0c7.091 0 12.84-5.749 12.84-12.84 0-6.787-5.265-12.344-11.934-12.809q-0.322-0.022-0.648-0.029h-0.003l-0.012-0h-0.004l-0.022-0h-0.218c-7.091-0.002-12.84 5.747-12.84 12.838zM4.875 31.978c-3.043-4.455-4.859-9.959-4.859-15.887 0-6.005 1.864-11.575 5.044-16.162l-0.062 0.094h6.989c-4.049 4.141-6.548 9.813-6.548 16.068 0 6.167 2.428 11.767 6.381 15.896l-0.008-0.008zM28.429 25.229q-0.183 0-0.365-0.007c-1.163-0.046-2.253-0.303-3.251-0.735l0.059 0.023q-0.236-0.1-0.465-0.212-0.046-0.023-0.093-0.046c-0.014-0.007-0.028-0.014-0.042-0.022l-0.025-0.013c-0.875-0.456-1.626-1.011-2.278-1.664l-0-0c-1.343-1.342-2.271-3.101-2.572-5.066l-0.006-0.051c-0.062-0.403-0.098-0.867-0.098-1.34 0-0.002 0-0.003 0-0.005v0c0-0.001 0-0.002 0-0.003 0-5.045 4.090-9.135 9.135-9.135 0.001 0 0.002 0 0.004 0h-0q0.194 0 0.386 0.008h0.003l0.035 0.002c2.074 0.098 3.95 0.874 5.429 2.11l-0.014-0.012 0.001 0.001 0.013 0.011q0.316 0.264 0.61 0.557c0.271 0.271 0.525 0.558 0.761 0.861l0.016 0.021c0.455 0.584 0.851 1.25 1.158 1.963l0.023 0.059q0.109 0.258 0.202 0.52c0.328 0.9 0.518 1.939 0.518 3.023 0 0.005 0 0.010 0 0.015v-0.001c-0.001 3.743-2.25 6.96-5.471 8.374l-0.059 0.023q-0.025 0.011-0.051 0.022c-1.045 0.455-2.262 0.72-3.542 0.72-0.006 0-0.011 0-0.017 0h0.001zM22.593 16.091c0 3.223 2.613 5.836 5.836 5.836s5.836-2.613 5.836-5.836c0-1.608-0.65-3.064-1.702-4.12l-0.007-0.007-0.014-0.014c-1.055-1.048-2.508-1.696-4.113-1.696-3.223 0-5.837 2.613-5.837 5.836v0zM28.429 19.215c-1.725-0.001-3.124-1.399-3.125-3.124v-0c0-1.726 1.399-3.125 3.125-3.125s3.125 1.399 3.125 3.125v0c-0.002 1.725-1.4 3.123-3.124 3.125h-0zM27.262 16.091c0 0.645 0.523 1.167 1.167 1.167s1.167-0.523 1.167-1.167c0-0.645-0.523-1.167-1.167-1.167v0c-0.645 0-1.167 0.523-1.167 1.167v0z"></path>
</symbol>
</defs>
</svg>
