<!-- Generated by IcoMoon.io -->
<!-- <svg version="1.1" xmlns="http://www.w3.org/2000/svg" width="133" height="32" viewBox="0 0 133 32">
<title>brand-logo</title>
<path d="M21.276 8.13h-8.683c-1.026-0.354-2.209-0.559-3.44-0.559-0.007 0-0.014 0-0.021 0h0.001c-0.097-0.003-0.21-0.005-0.324-0.005-2.366 0-4.532 0.852-6.21 2.266l0.014-0.012c-1.598 1.279-2.613 3.229-2.613 5.416 0 0.007 0 0.015 0 0.022v-0.001c-0 0.024-0.001 0.052-0.001 0.080 0 2.484 1.385 4.644 3.425 5.75l0.034 0.017-3.425 8.13 3.326 2.11c2.258-1.481 5.009-2.387 7.968-2.456l0.018-0c0.060-0.003 0.131-0.005 0.202-0.005 0.809 0 1.56 0.248 2.181 0.671l-0.013-0.009c0.664 0.617 1.089 1.484 1.124 2.45l0 0.006 5.708-0.692q-0.519-7.023-6.884-7.023c-2.976 0.042-5.719 1.008-7.964 2.623l0.041-0.028 2.698-4.29c0.215 0.023 0.465 0.035 0.718 0.035 0.039 0 0.079-0 0.118-0.001l-0.006 0c0.115 0.005 0.249 0.008 0.385 0.008 2.275 0 4.37-0.771 6.038-2.065l-0.022 0.017c1.541-1.146 2.528-2.962 2.528-5.008 0-0.003 0-0.006 0-0.009v0c0-0.017 0-0.038 0-0.058 0-1.145-0.363-2.205-0.98-3.071l0.011 0.016 4.048 0.277zM9.237 18.785c-0.023 0-0.050 0.001-0.077 0.001-1.048 0-2.005-0.394-2.729-1.042l0.004 0.003c-0.724-0.632-1.178-1.557-1.178-2.587 0-0.039 0.001-0.078 0.002-0.117l-0 0.006c-0.002-0.042-0.003-0.092-0.003-0.142 0-0.972 0.421-1.846 1.090-2.45l0.003-0.003c0.682-0.602 1.583-0.97 2.571-0.97 0.039 0 0.078 0.001 0.116 0.002l-0.006-0c0.027-0.001 0.059-0.001 0.091-0.001 1.033 0 1.974 0.395 2.68 1.042l-0.003-0.003c0.704 0.646 1.144 1.57 1.144 2.596 0 0.048-0.001 0.096-0.003 0.143l0-0.007c0.002 0.045 0.004 0.099 0.004 0.152 0 0.96-0.414 1.824-1.073 2.423l-0.003 0.002c-0.669 0.592-1.555 0.953-2.524 0.953-0.037 0-0.074-0.001-0.11-0.002l0.005 0zM34.041 8.649v10.136c-0.847 1.121-2.171 1.843-3.664 1.863l-0.003 0q-2.906 0-2.906-4.29v-8.822l-5.466 1.107v9.41c-0.011 0.149-0.017 0.322-0.017 0.497 0 1.84 0.667 3.524 1.772 4.824l-0.009-0.011c1.077 1.146 2.602 1.859 4.294 1.859 0.066 0 0.131-0.001 0.196-0.003l-0.009 0c0.062 0.002 0.135 0.003 0.208 0.003 2.318 0 4.397-1.029 5.803-2.654l0.008-0.010v2.177h5.258v-17.194zM54.348 1.418v6.435c-0.908-0.203-1.956-0.328-3.031-0.346l-0.013-0c-0.087-0.003-0.19-0.004-0.294-0.004-2.619 0-4.998 1.030-6.754 2.706l0.004-0.004c-1.742 1.67-2.825 4.015-2.825 6.614 0 0.107 0.002 0.214 0.005 0.321l-0-0.015c-0.005 0.108-0.008 0.234-0.008 0.361 0 2.129 0.797 4.071 2.108 5.546l-0.007-0.008c1.257 1.395 3.069 2.268 5.086 2.268 0.058 0 0.116-0.001 0.173-0.002l-0.009 0c0.055 0.002 0.12 0.002 0.186 0.002 2.266 0 4.283-1.064 5.58-2.72l0.012-0.015v2.179h5.253v-24.424zM51.165 20.895c-0.041 0.002-0.089 0.003-0.137 0.003-1.121 0-2.125-0.503-2.799-1.295l-0.004-0.005c-0.694-0.873-1.114-1.991-1.114-3.208 0-0.095 0.003-0.189 0.008-0.282l-0.001 0.013c-0.008-0.098-0.012-0.212-0.012-0.327 0-1.165 0.452-2.225 1.191-3.014l-0.002 0.002c0.738-0.698 1.737-1.127 2.836-1.127 0.049 0 0.098 0.001 0.146 0.003l-0.007-0c0.020-0 0.045-0 0.069-0 1.111 0 2.15 0.309 3.036 0.845l-0.026-0.015v6.884c-0.714 0.93-1.827 1.524-3.078 1.524-0.037 0-0.074-0.001-0.11-0.002l0.005 0zM71.369 4.255c1.571 0.013 3.067 0.316 4.443 0.859l-0.084-0.029v-4.29c-1.501-0.507-3.229-0.799-5.025-0.799-0.046 0-0.091 0-0.137 0.001l0.007-0q-7.611 0-7.611 7.507v17.231h5.466v-12.385h5.847v-4.221h-5.847v-0.825c-0.007-0.081-0.011-0.174-0.011-0.269 0-0.77 0.265-1.478 0.708-2.038l-0.005 0.007c0.521-0.472 1.216-0.762 1.978-0.762 0.095 0 0.189 0.005 0.282 0.013l-0.012-0.001zM83.408 25.427c0.093 0.003 0.202 0.005 0.312 0.005 2.62 0 5.004-1.008 6.786-2.657l-0.007 0.006c1.747-1.588 2.839-3.87 2.839-6.407 0-0.065-0.001-0.129-0.002-0.193l0 0.010c0.001-0.047 0.002-0.103 0.002-0.159 0-2.42-1.061-4.593-2.743-6.078l-0.009-0.008c-1.729-1.559-4.031-2.513-6.555-2.513-0.11 0-0.219 0.002-0.328 0.005l0.016-0c-0.093-0.003-0.202-0.005-0.312-0.005-2.62 0-5.004 1.008-6.786 2.657l0.007-0.006c-1.747 1.594-2.839 3.88-2.839 6.422 0 0.071 0.001 0.143 0.003 0.214l-0-0.011c-0.001 0.049-0.002 0.107-0.002 0.165 0 2.413 1.061 4.578 2.743 6.054l0.009 0.008c1.732 1.549 4.031 2.496 6.551 2.496 0.111 0 0.222-0.002 0.332-0.005l-0.016 0zM83.719 21.345c-0.053 0.003-0.115 0.004-0.178 0.004-1.195 0-2.266-0.537-2.983-1.382l-0.005-0.006c-0.728-0.94-1.167-2.136-1.167-3.434 0-0.108 0.003-0.216 0.009-0.322l-0.001 0.015c-0.005-0.086-0.008-0.186-0.008-0.287 0-1.194 0.407-2.293 1.089-3.166l-0.009 0.011c0.674-0.778 1.663-1.267 2.766-1.267 0.061 0 0.122 0.002 0.183 0.005l-0.009-0c0.051-0.002 0.112-0.004 0.172-0.004 1.198 0 2.27 0.539 2.987 1.387l0.005 0.006c0.729 0.947 1.168 2.149 1.168 3.454 0 0.112-0.003 0.222-0.010 0.332l0.001-0.015c0.005 0.081 0.007 0.175 0.007 0.271 0 1.187-0.406 2.278-1.087 3.144l0.008-0.011c-0.674 0.78-1.664 1.271-2.77 1.271-0.060 0-0.12-0.001-0.179-0.004l0.008 0zM103.611 25.427c0.093 0.003 0.202 0.005 0.312 0.005 2.62 0 5.004-1.008 6.786-2.657l-0.007 0.006c1.747-1.588 2.839-3.87 2.839-6.407 0-0.065-0.001-0.129-0.002-0.193l0 0.010c0.001-0.047 0.002-0.102 0.002-0.158 0-2.421-1.061-4.594-2.744-6.079l-0.009-0.008c-1.729-1.559-4.031-2.513-6.555-2.513-0.109 0-0.218 0.002-0.326 0.005l0.016-0c-0.093-0.003-0.202-0.005-0.312-0.005-2.62 0-5.004 1.008-6.786 2.657l0.007-0.006c-1.747 1.594-2.839 3.88-2.839 6.422 0 0.071 0.001 0.143 0.003 0.214l-0-0.011c-0.001 0.049-0.002 0.107-0.002 0.165 0 2.413 1.061 4.578 2.743 6.054l0.009 0.008c1.732 1.549 4.031 2.496 6.551 2.496 0.111 0 0.222-0.002 0.332-0.005l-0.016 0zM103.922 21.345c-0.053 0.003-0.115 0.004-0.178 0.004-1.195 0-2.266-0.537-2.983-1.382l-0.005-0.006c-0.728-0.94-1.167-2.136-1.167-3.434 0-0.108 0.003-0.216 0.009-0.322l-0.001 0.015c-0.005-0.082-0.007-0.179-0.007-0.276 0-1.197 0.408-2.298 1.094-3.172l-0.008 0.011c0.674-0.778 1.663-1.267 2.766-1.267 0.061 0 0.122 0.002 0.183 0.005l-0.009-0c0.053-0.003 0.115-0.004 0.178-0.004 1.195 0 2.266 0.537 2.983 1.382l0.005 0.006c0.729 0.947 1.168 2.149 1.168 3.454 0 0.112-0.003 0.222-0.010 0.332l0.001-0.015c0.004 0.078 0.007 0.17 0.007 0.263 0 1.19-0.408 2.285-1.093 3.152l0.008-0.011c-0.674 0.78-1.664 1.271-2.77 1.271-0.060 0-0.12-0.001-0.179-0.004l0.008 0zM127.135 1.418v6.435c-0.908-0.203-1.956-0.328-3.031-0.346l-0.013-0c-0.086-0.003-0.188-0.004-0.29-0.004-2.619 0-4.998 1.030-6.754 2.706l0.004-0.004c-1.742 1.67-2.825 4.015-2.825 6.614 0 0.107 0.002 0.214 0.005 0.321l-0-0.015c-0.005 0.108-0.008 0.234-0.008 0.361 0 2.129 0.797 4.071 2.108 5.546l-0.007-0.008c1.257 1.395 3.069 2.268 5.086 2.268 0.055 0 0.109-0.001 0.164-0.002l-0.008 0c0.055 0.002 0.12 0.002 0.186 0.002 2.266 0 4.283-1.064 5.58-2.72l0.012-0.015v2.179h5.258v-24.424zM123.952 20.895c-0.041 0.002-0.089 0.003-0.137 0.003-1.121 0-2.125-0.503-2.799-1.295l-0.004-0.005c-0.694-0.873-1.114-1.991-1.114-3.208 0-0.095 0.003-0.189 0.008-0.282l-0.001 0.013c-0.008-0.098-0.012-0.212-0.012-0.327 0-1.165 0.452-2.225 1.191-3.014l-0.002 0.002c0.738-0.698 1.737-1.127 2.836-1.127 0.049 0 0.098 0.001 0.146 0.003l-0.007-0c0.020-0 0.045-0 0.069-0 1.111 0 2.15 0.309 3.036 0.845l-0.026-0.015v6.884c-0.714 0.93-1.827 1.524-3.078 1.524-0.037 0-0.074-0.001-0.11-0.002l0.005 0z"></path>
</svg> -->
<svg version="1.0" xmlns="http://www.w3.org/2000/svg"
 width="1600.000000pt" height="1690.000000pt" viewBox="0 0 1600.000000 1690.000000"
 preserveAspectRatio="xMidYMid meet">

<g transform="translate(0.000000,1690.000000) scale(0.100000,-0.100000)"
fill="#000000" stroke="none">
<path d="M5514 12134 c-242 -40 -485 -163 -657 -332 -83 -82 -97 -121 -69
-185 29 -65 111 -97 168 -64 12 7 50 38 84 70 121 110 249 182 417 234 83 26
99 27 278 27 177 0 196 -2 277 -27 168 -51 299 -128 437 -253 62 -57 67 -59
119 -59 49 0 56 3 88 37 30 33 34 44 34 90 l0 52 -82 81 c-173 169 -406 286
-657 329 -114 19 -322 20 -437 0z"/>
<path d="M10045 12134 c-255 -46 -517 -182 -677 -352 -55 -57 -58 -63 -58
-111 0 -42 5 -56 31 -85 58 -67 127 -61 210 18 123 116 274 204 434 252 121
36 348 45 476 19 181 -36 336 -112 474 -233 43 -37 89 -75 104 -84 58 -39 142
-10 173 59 28 64 14 103 -69 185 -175 172 -417 293 -665 332 -120 20 -325 19
-433 0z"/>
<path d="M10896 10004 c-93 -29 -193 -155 -239 -299 -35 -110 -40 -176 -38
-510 2 -318 -6 -432 -34 -510 -4 -11 7 -2 25 20 59 71 142 145 290 258 254
194 363 324 405 482 42 164 -6 354 -119 469 -88 90 -190 122 -290 90z"/>
<path d="M3679 9455 c-31 -17 -42 -42 -64 -150 -71 -334 -274 -598 -570 -741
-283 -137 -601 -135 -915 7 -102 45 -126 46 -172 1 -33 -30 -38 -93 -12 -130
37 -54 217 -154 360 -201 217 -71 497 -72 707 -2 l56 18 43 -61 c600 -865
1467 -1586 2428 -2019 618 -278 1216 -435 1930 -507 172 -18 695 -24 890 -11
1289 86 2467 555 3445 1371 412 344 709 669 1100 1204 l20 27 45 -16 c256 -92
599 -73 854 48 105 50 207 116 230 149 25 35 20 91 -9 126 -41 49 -71 49 -175
3 -249 -113 -484 -137 -726 -76 -390 99 -686 421 -764 830 -16 86 -29 114 -61
130 -48 25 -87 19 -126 -20 l-36 -36 6 -117 c10 -200 81 -412 197 -583 55 -80
177 -208 256 -268 l62 -47 -42 -57 c-88 -116 -298 -357 -442 -506 -387 -400
-851 -760 -1329 -1033 -118 -67 -315 -170 -315 -165 0 2 13 33 29 68 41 91 98
273 132 419 76 334 85 573 29 798 -26 102 -99 247 -161 323 -139 166 -381 272
-654 286 -372 18 -626 -126 -780 -442 -91 -186 -129 -371 -145 -709 -14 -299
-50 -460 -146 -650 -69 -137 -138 -230 -264 -357 -156 -157 -342 -290 -445
-318 -50 -14 -244 -14 -468 -1 -1344 80 -2575 602 -3599 1526 -220 199 -501
502 -681 736 l-67 86 63 50 c231 185 383 439 432 726 8 49 15 122 15 163 0 72
-1 76 -34 109 -38 38 -81 44 -127 19z"/>
<path d="M11253 8626 c-71 -23 -134 -66 -214 -146 -71 -71 -137 -156 -128
-164 2 -2 33 3 68 12 56 13 81 14 187 4 166 -17 240 0 297 68 102 120 -46 279
-210 226z"/>
<path d="M8217 8519 c-41 -31 -52 -90 -33 -167 38 -156 154 -273 306 -310 25
-6 83 -13 130 -17 47 -3 110 -8 140 -11 l55 -6 -45 33 c-103 74 -203 196 -269
327 -35 70 -91 136 -132 158 -42 21 -121 18 -152 -7z"/>
<path d="M0 450 l0 -450 8000 0 8000 0 0 450 0 450 -8000 0 -8000 0 0 -450z
m635 263 c59 -20 122 -80 156 -148 33 -69 35 -209 2 -270 -24 -45 -70 -92 -80
-82 -4 4 5 43 20 87 33 97 34 140 3 205 -41 88 -118 137 -217 137 -89 0 -153
-44 -192 -130 -25 -58 -18 -126 19 -189 43 -74 138 -103 214 -65 98 49 108
192 16 236 -49 23 -64 20 -102 -18 -38 -38 -41 -54 -19 -95 27 -53 61 -48 67
9 2 24 9 36 21 38 48 9 62 -54 24 -102 -20 -25 -31 -29 -70 -29 -56 0 -94 23
-113 68 -42 102 20 210 129 222 62 7 111 -12 151 -59 93 -109 58 -272 -73
-340 -95 -50 -219 -33 -294 40 -101 99 -103 304 -4 409 80 84 225 116 342 76z
m613 -208 c3 -164 -8 -198 -71 -229 -33 -16 -45 -17 -76 -7 -20 6 -48 22 -62
37 -21 22 -24 35 -24 96 0 68 1 70 37 104 44 40 93 47 103 14 8 -25 -10 -50
-36 -50 -10 0 -26 -11 -35 -25 -48 -73 28 -155 86 -93 18 20 20 35 20 153 0
73 3 135 7 139 4 4 16 6 28 4 19 -3 20 -11 23 -143z m1887 110 c0 -27 -3 -30
-30 -30 -21 0 -31 5 -33 18 -6 33 6 49 35 45 24 -3 28 -8 28 -33z m-285 -45
l0 -29 73 -3 72 -3 0 -30 0 -30 -72 -3 -73 -3 0 -44 c0 -24 5 -56 12 -70 19
-43 78 -28 78 20 0 28 17 44 41 38 43 -12 13 -110 -43 -139 -26 -13 -38 -14
-70 -5 -53 16 -66 47 -68 162 -2 174 -3 169 25 169 21 0 25 -5 25 -30z m-1416
-36 c27 -10 20 -53 -9 -60 -36 -9 -45 -32 -45 -117 0 -78 -13 -106 -45 -93
-12 4 -15 25 -15 100 0 109 10 139 54 160 35 18 39 18 60 10z m254 -14 c21
-13 32 -27 32 -43 0 -31 -72 -110 -96 -105 -27 5 -29 41 -4 63 25 23 26 35 0
35 -26 0 -62 -57 -54 -85 13 -43 34 -55 98 -55 72 0 89 -9 84 -41 -3 -23 -6
-24 -85 -24 -79 0 -84 1 -114 32 -25 25 -33 42 -37 83 -11 121 83 196 176 140z
m316 -19 c30 -30 31 -35 34 -131 3 -88 2 -101 -14 -107 -28 -11 -44 24 -44 99
0 55 -4 72 -20 88 -57 57 -132 -29 -85 -96 8 -12 28 -24 45 -28 27 -5 31 -10
28 -33 -2 -21 -9 -29 -28 -31 -36 -4 -89 33 -106 73 -59 141 87 269 190 166z
m265 23 c19 -14 25 -14 32 -3 5 9 26 14 53 14 36 0 51 -6 73 -28 27 -27 28
-31 28 -135 l0 -107 -25 0 c-25 0 -25 2 -30 94 -4 75 -9 96 -22 105 -13 8 -23
8 -35 0 -15 -9 -19 -28 -21 -103 -2 -70 -6 -93 -18 -98 -30 -11 -42 15 -43 99
-2 84 -11 108 -40 108 -32 0 -41 -22 -41 -106 0 -85 -12 -113 -45 -100 -12 4
-15 25 -15 100 0 105 9 134 48 159 34 21 71 21 101 1z m470 -6 c11 -30 -4 -48
-39 -48 -32 0 -40 -14 -40 -75 0 -66 -26 -113 -69 -125 -47 -13 -56 -13 -69 3
-19 23 -3 57 27 57 41 0 51 18 51 86 0 54 3 66 29 93 37 40 97 44 110 9z m389
-114 c2 -118 1 -132 -15 -138 -32 -13 -43 21 -43 125 0 110 11 152 38 147 15
-3 17 -19 20 -134z m230 120 c20 -14 24 -14 44 0 34 24 74 20 110 -13 l33 -29
0 -109 0 -108 -25 0 c-24 0 -25 2 -30 92 -5 100 -15 119 -54 109 -26 -6 -26
-8 -26 -102 0 -77 -3 -96 -16 -101 -28 -10 -39 16 -44 104 -4 67 -9 88 -22 97
-13 8 -23 8 -35 0 -15 -9 -19 -28 -21 -97 -3 -89 -15 -116 -48 -103 -13 5 -15
22 -12 112 3 105 3 106 36 135 36 33 76 37 110 13z m450 -4 c19 -12 32 -28 32
-40 0 -32 -71 -111 -95 -108 -27 4 -30 39 -5 65 25 27 25 33 2 33 -27 0 -55
-36 -55 -70 0 -42 28 -70 72 -70 47 0 64 -12 59 -41 -7 -51 -132 -33 -167 25
-42 67 -19 179 42 210 43 21 76 20 115 -4z m373 -19 c16 -16 29 -39 29 -50 0
-17 -6 -21 -35 -21 -22 0 -38 6 -41 15 -9 24 -43 29 -65 9 -23 -21 -25 -80 -3
-112 19 -27 39 -28 61 -2 11 12 30 20 50 20 27 0 33 -4 33 -21 0 -11 -13 -34
-29 -50 -24 -24 -38 -29 -76 -29 -63 0 -99 21 -119 70 -19 47 -20 71 -5 123
13 50 57 77 122 77 40 0 54 -5 78 -29z m256 12 c32 -21 53 -70 53 -123 0 -89
-54 -135 -147 -128 -65 6 -87 25 -104 90 -16 57 0 118 38 154 32 30 119 34
160 7z m290 2 c18 -13 22 -13 33 0 8 10 30 15 60 15 40 0 52 -4 69 -26 18 -23
21 -41 21 -135 l0 -109 -40 0 -39 0 -3 96 c-2 78 -6 99 -20 108 -13 8 -22 6
-37 -8 -11 -10 -20 -21 -19 -25 0 -3 0 -43 -1 -88 l-1 -83 -35 0 -35 0 0 88
c0 106 -13 133 -54 114 -25 -11 -26 -14 -26 -107 l0 -95 -40 0 -40 0 0 130 0
131 50 -2 c27 -2 53 0 57 4 12 13 78 7 100 -8z m7773 -81 c0 -68 -3 -84 -15
-84 -8 0 -18 -1 -22 -2 -8 -3 -16 149 -9 168 3 7 13 10 25 7 19 -5 21 -13 21
-89z m330 0 c0 -77 -2 -84 -20 -84 -18 0 -20 7 -20 66 0 57 -3 67 -20 71 -32
8 -24 31 13 35 17 2 35 2 40 0 4 -2 7 -41 7 -88z m1140 76 c0 -15 -7 -20 -29
-20 -17 0 -33 -4 -36 -10 -3 -6 4 -10 16 -10 48 0 74 -54 49 -101 -20 -36
-110 -21 -110 18 0 16 32 17 47 2 23 -23 43 10 24 40 -8 12 -12 12 -25 2 -28
-23 -42 -7 -38 42 l4 46 46 4 c26 2 48 4 50 5 1 1 2 -7 2 -18z m590 4 c0 -12
-7 -15 -25 -12 -21 4 -26 1 -31 -21 -3 -14 -12 -47 -19 -73 -7 -25 -11 -49 -8
-52 4 -3 -5 -6 -19 -6 -23 0 -27 6 -39 53 l-12 52 -15 -52 c-11 -39 -19 -53
-33 -53 -18 0 -21 5 -37 75 -24 97 -24 95 -3 95 19 0 22 -5 36 -65 7 -30 7
-30 21 18 11 34 20 47 33 47 15 0 20 -10 26 -45 7 -53 20 -51 29 4 5 34 10 40
34 44 54 8 62 7 62 -9z m1061 -31 c0 -47 1 -47 16 -25 9 12 26 22 40 22 l24 0
-23 -30 -22 -30 22 -30 c28 -37 28 -37 -7 -42 -18 -3 -27 0 -25 7 3 6 -2 19
-10 30 -15 19 -15 19 -16 -7 0 -21 -5 -28 -20 -28 -18 0 -20 7 -20 55 0 53 -1
55 -20 45 -15 -8 -20 -21 -20 -55 0 -38 -3 -45 -20 -45 -18 0 -20 7 -20 65 l0
65 40 0 c36 0 40 3 40 25 0 18 5 25 20 25 17 0 20 -7 21 -47z m-2977 15 c9
-12 16 -42 16 -65 0 -60 -25 -83 -90 -83 l-50 0 0 85 0 85 54 0 c45 0 58 -4
70 -22z m342 -3 c19 -29 15 -104 -6 -130 -17 -20 -80 -20 -80 0 0 9 9 15 25
15 14 0 25 2 25 4 0 2 3 11 6 19 4 11 -1 13 -20 10 -34 -7 -56 12 -56 48 0 59
74 83 106 34z m148 3 c8 -13 8 -23 -1 -38 -8 -12 -9 -21 -3 -25 14 -9 12 -59
-2 -73 -7 -7 -28 -12 -48 -12 -37 0 -60 14 -60 37 0 16 37 17 42 1 6 -16 38
-2 38 16 0 9 -11 18 -24 22 -29 7 -24 34 5 34 10 0 19 5 19 10 0 16 -33 26
-38 12 -5 -16 -42 -15 -42 1 0 39 91 50 114 15z m130 6 c18 -18 22 -104 6
-135 -8 -14 -21 -19 -50 -19 -47 0 -60 18 -60 85 0 65 13 85 55 85 18 0 41 -7
49 -16z m140 -6 c21 -30 21 -106 -1 -130 -9 -10 -30 -18 -50 -18 -26 0 -33 4
-33 20 0 13 5 18 15 14 15 -6 45 11 45 26 0 4 -11 5 -25 2 -47 -8 -71 40 -45
89 15 28 74 26 94 -3z m146 2 c7 -14 8 -26 0 -39 -7 -13 -7 -22 0 -26 14 -9
13 -58 -2 -73 -16 -16 -80 -16 -96 0 -15 15 -16 64 -2 73 8 5 7 11 -1 21 -9
11 -9 21 -1 39 10 21 19 25 51 25 30 0 43 -5 51 -20z m142 -5 c8 -18 8 -29 1
-36 -7 -7 -7 -19 0 -40 16 -41 0 -63 -47 -67 -39 -3 -66 11 -66 34 0 17 37 19
42 2 6 -16 38 -2 38 16 0 9 -11 18 -24 22 -29 7 -24 34 5 34 10 0 19 5 19 10
0 16 -33 26 -38 12 -5 -16 -42 -15 -42 1 0 23 23 37 62 37 31 0 41 -5 50 -25z
m142 3 c8 -13 8 -23 -1 -38 -8 -12 -9 -21 -3 -25 14 -9 12 -59 -2 -73 -7 -7
-28 -12 -48 -12 -37 0 -60 14 -60 37 0 16 37 17 42 1 6 -17 38 -2 38 18 0 9
-9 18 -20 21 -11 3 -20 11 -20 18 0 7 9 15 20 18 11 3 20 10 20 16 0 6 -9 11
-20 11 -11 0 -20 -4 -20 -10 0 -5 -9 -10 -20 -10 -22 0 -26 20 -8 38 18 18 89
11 102 -10z m371 -3 c50 -49 20 -137 -52 -151 -44 -9 -93 38 -93 89 0 80 90
118 145 62z m945 0 c0 -10 10 -15 29 -15 30 0 40 -13 42 -53 1 -14 5 -8 11 16
12 46 33 48 52 5 l14 -33 1 33 c1 26 5 32 22 32 19 0 21 -4 15 -32 -4 -18 -10
-48 -13 -65 -7 -42 -39 -45 -54 -5 l-11 27 -10 -27 c-6 -17 -17 -28 -28 -28
-19 0 -25 10 -35 72 -5 26 -11 35 -21 31 -16 -6 -20 -73 -4 -73 6 0 10 -7 10
-16 0 -11 -8 -14 -27 -12 -26 3 -28 7 -31 51 -2 26 -7 47 -13 47 -5 0 -9 7 -9
15 0 8 5 15 10 15 6 0 10 7 10 15 0 8 9 15 20 15 11 0 20 -7 20 -15z m-590
-80 c0 -58 -2 -65 -20 -65 -18 0 -20 7 -20 65 0 58 2 65 20 65 18 0 20 -7 20
-65z m114 49 c24 -23 20 -27 -19 -20 -44 9 -46 -8 -3 -20 56 -16 45 -74 -12
-74 -41 0 -60 10 -60 31 0 20 26 27 32 8 2 -6 13 -9 23 -7 16 4 13 8 -17 21
-39 17 -49 42 -26 65 17 17 64 15 82 -4z m126 -3 c5 -11 10 -29 10 -40 0 -17
-6 -21 -36 -21 -22 0 -33 -4 -29 -11 4 -5 19 -9 33 -7 19 2 27 -2 27 -12 0
-21 -77 -26 -94 -6 -16 19 -17 66 -2 94 16 29 75 31 91 3z m128 7 c7 -7 12
-36 12 -65 l0 -53 -50 0 c-45 0 -52 3 -62 26 -11 22 -10 28 7 40 10 8 29 14
42 14 13 0 23 5 23 10 0 7 -13 8 -35 4 -19 -3 -35 -2 -35 3 0 18 25 33 55 33
17 0 36 -5 43 -12z m142 -14 c6 -14 10 -43 10 -65 0 -32 -3 -39 -19 -39 -17 0
-20 8 -23 47 -2 36 -7 49 -20 51 -15 3 -18 -4 -18 -47 0 -44 -3 -51 -20 -51
-18 0 -20 7 -20 64 l0 64 50 0 c45 1 52 -2 60 -24z m394 10 c39 -38 7 -114
-48 -114 -41 0 -58 19 -58 65 0 20 6 42 12 50 16 20 74 19 94 -1z m-11529
-169 c0 -27 -3 -30 -30 -30 -21 0 -31 5 -33 18 -6 33 6 49 35 45 24 -3 28 -8
28 -33z"/>
<path d="M4326 448 c-22 -31 -20 -84 4 -108 25 -25 35 -25 60 0 26 26 27 90 2
113 -25 23 -48 21 -66 -5z"/>
<path d="M12560 435 c0 -46 3 -55 18 -55 25 0 42 19 42 48 0 34 -18 62 -40 62
-18 0 -20 -7 -20 -55z"/>
<path d="M12927 483 c-13 -12 -7 -43 7 -43 19 0 28 14 20 34 -7 17 -16 20 -27
9z"/>
<path d="M13202 438 c2 -39 7 -53 18 -53 11 0 15 12 15 50 0 40 -4 50 -18 53
-16 3 -18 -3 -15 -50z"/>
<path d="M13347 484 c-15 -15 -7 -45 11 -42 9 2 17 12 17 22 0 20 -16 31 -28
20z"/>
<path d="M13485 481 c-3 -5 -1 -12 5 -16 12 -7 30 2 30 16 0 12 -27 12 -35 0z"/>
<path d="M13491 420 c-17 -10 -7 -40 14 -40 8 0 15 9 15 19 0 24 -12 32 -29
21z"/>
<path d="M14096 478 c-38 -54 5 -129 61 -107 53 20 68 69 33 107 -27 29 -74
29 -94 0z m80 -5 c12 -12 13 -18 4 -21 -6 -2 -17 1 -23 7 -7 7 -14 7 -24 0
-15 -13 -16 -28 -4 -48 8 -12 12 -13 25 -1 23 18 34 3 13 -17 -13 -14 -21 -14
-42 -5 -19 9 -25 19 -25 45 0 54 40 76 76 40z"/>
<path d="M14745 440 c-3 -5 1 -10 9 -10 9 0 16 5 16 10 0 6 -4 10 -9 10 -6 0
-13 -4 -16 -10z"/>
<path d="M14865 401 c-3 -5 -1 -12 5 -16 12 -7 30 2 30 16 0 12 -27 12 -35 0z"/>
<path d="M15398 433 c-7 -30 3 -54 20 -51 23 4 23 61 1 66 -9 2 -18 -5 -21
-15z"/>
</g>
</svg>


